
	<svg xmlns="http://www.w3.org/2000/svg" xmlns:xlink="http://www.w3.org/1999/xlink" version="1.1" width="128" height="128" viewBox="0 0 100 100">



		        <defs>
		            
	<linearGradient id="picture-gradient" x1="0" y1="0" y2="1" x2="0" >
		<stop stop-color="#4aff2e" offset="0%"/>
		<stop stop-color="#de7c2f" offset="100%"/>
	</linearGradient>

		        </defs>

            <g transform="
                    translate(50 50)
                    translate(0 0)  scale(0.7)  
                    translate(-50 -50)
                    ">

            <g fill="url(#picture-gradient)">

                <g transform="scale(3.1055899885286604) translate(3.750001549720764 0.29999983310699463)" id="picture"><path d="M11.7 12.7c.1-1 .4-2.2 1-3.2.6-.9 1.5-1.7 2.7-2.4.9.5 1.8.8 2.8.8 1.1 0 2.3-.3 3.3-.9 2.1-1.2 3.3-3.4 3.3-5.7 0-.2-.1-.3-.2-.4-1.9-1.2-4.4-1.2-6.4 0S15 4.1 14.9 6.4c-1.4.8-2.4 1.7-3.1 2.7-.8 1.1-1 2.4-1.2 3.6-.4-1.2-1.2-2.3-2.2-2.9l-.2-.1c-.1 0-.1-.1-.2-.1-.1-1.7-1.1-3.2-2.7-4-1.6-.9-3.6-.9-5.1 0-.2.1-.2.3-.2.4 0 1.7 1 3.3 2.7 4.2.8.4 1.7.7 2.6.7.8 0 1.5-.2 2.2-.5.1 0 .1.1.2.1l.2.1c1.7 1.1 2.6 3.3 2.7 5.3H1c-.3 0-.6.1-.8.3-.2.2-.3.5-.2.8l2 14c.1.5.5.9 1 .9h16c.5 0 .9-.4 1-.9l2-14c0-.3 0-.6-.2-.8-.2-.2-.5-.3-.8-.3h-9.4V15c0-.8 0-1.6.1-2.3zm7.2-11c1.7-1 3.6-1 5.1-.2-.1 1.9-1.2 3.6-2.8 4.6-1.7 1-3.6 1-5.1.2 0-1.9 1.1-3.6 2.8-4.6zM3.1 9.4c-1.2-.7-2-1.8-2.1-3.1 1.2-.6 2.6-.5 3.9.1 1.2.7 2 1.8 2.1 3.1-1.2.6-2.6.5-3.9-.1zm15 20.5H3.9l-1.3-9h16.8l-1.3 9zm1.5-10H2.4l-.3-2h17.7l-.2 2z"/></g>

            </g>

            </g>


	</svg>
